# Exported from Wings 3D 0.98.32a
mtllib grandfather clock glass.mtl
o glass
#8 vertices, 6 faces
v -0.59961845 3.13080088 0.72104550
v -0.59961845 5.63491685 0.72104550
v 0.60921654 5.63491685 0.72104550
v 0.60921654 3.13080088 0.72104550
v -0.74696401 3.00697097 0.68440658
v -0.74696401 5.75874676 0.68440658
v 0.75656210 5.75874676 0.68440658
v 0.75656210 3.00697097 0.68440658
vn 0.0000000e+0 0.0000000e+0 1.00000000
vn 0.0000000e+0 -0.28372224 0.95890651
vn -0.24131136 0.0000000e+0 0.97044774
vn 0.0000000e+0 0.0000000e+0 1.00000000
vn 0.0000000e+0 0.28372224 0.95890651
vn -0.24131136 0.0000000e+0 0.97044774
vn 0.0000000e+0 0.0000000e+0 1.00000000
vn 0.24131136 0.0000000e+0 0.97044774
vn 0.0000000e+0 0.28372224 0.95890651
vn 0.0000000e+0 0.0000000e+0 1.00000000
vn 0.24131136 0.0000000e+0 0.97044774
vn 0.0000000e+0 -0.28372224 0.95890651
vn 0.0000000e+0 -0.28372224 0.95890651
vn 0.0000000e+0 0.0000000e+0 -1.00000000
vn -0.24131136 0.0000000e+0 0.97044774
vn 0.0000000e+0 0.28372224 0.95890651
vn 0.0000000e+0 0.0000000e+0 -1.00000000
vn -0.24131136 0.0000000e+0 0.97044774
vn 0.24131136 0.0000000e+0 0.97044774
vn 0.0000000e+0 0.28372224 0.95890651
vn 0.0000000e+0 0.0000000e+0 -1.00000000
vn 0.24131136 0.0000000e+0 0.97044774
vn 0.0000000e+0 -0.28372224 0.95890651
vn 0.0000000e+0 0.0000000e+0 -1.00000000
g glass_glass
usemtl glass
f 1//1 4//10 3//7 2//4
f 1//2 5//13 8//23 4//12
f 2//6 6//18 5//15 1//3
f 3//9 7//20 6//16 2//5
f 4//11 8//22 7//19 3//8
f 6//17 7//21 8//24 5//14
